<mxfile host="Electron" modified="2024-07-11T07:37:59.846Z" agent="Mozilla/5.0 (Macintosh; Intel Mac OS X 10_15_7) AppleWebKit/537.36 (KHTML, like Gecko) draw.io/24.6.4 Chrome/124.0.6367.207 Electron/30.0.6 Safari/537.36" etag="4KSLbu7Euowi4q2ePYNc" version="24.6.4" type="device">
  <diagram id="TVt-qdGfJkWatfx7KaSd" name="Page-1">
    <mxGraphModel dx="1919" dy="937" grid="1" gridSize="10" guides="1" tooltips="1" connect="1" arrows="1" fold="1" page="1" pageScale="1" pageWidth="1169" pageHeight="827" math="0" shadow="0">
      <root>
        <mxCell id="0" />
        <mxCell id="1" parent="0" />
        <mxCell id="eAkv9zsF8Zlez0--PabY-20" style="edgeStyle=orthogonalEdgeStyle;rounded=0;orthogonalLoop=1;jettySize=auto;html=1;" edge="1" parent="1" source="eAkv9zsF8Zlez0--PabY-2" target="eAkv9zsF8Zlez0--PabY-10">
          <mxGeometry relative="1" as="geometry" />
        </mxCell>
        <mxCell id="eAkv9zsF8Zlez0--PabY-2" value="Port = 3306" style="sketch=0;outlineConnect=0;fontColor=#232F3E;gradientColor=none;fillColor=#C925D1;strokeColor=none;dashed=0;verticalLabelPosition=top;verticalAlign=bottom;align=center;html=1;fontSize=12;fontStyle=0;aspect=fixed;pointerEvents=1;shape=mxgraph.aws4.aurora_instance_alt;labelPosition=center;" vertex="1" parent="1">
          <mxGeometry x="952.5" y="406" width="78" height="78" as="geometry" />
        </mxCell>
        <mxCell id="eAkv9zsF8Zlez0--PabY-11" value="" style="group" vertex="1" connectable="0" parent="1">
          <mxGeometry x="692.5" y="370" width="210" height="150" as="geometry" />
        </mxCell>
        <mxCell id="eAkv9zsF8Zlez0--PabY-10" value="subnet grouup" style="rounded=1;whiteSpace=wrap;html=1;labelPosition=center;verticalLabelPosition=top;align=center;verticalAlign=bottom;" vertex="1" parent="eAkv9zsF8Zlez0--PabY-11">
          <mxGeometry width="210" height="150" as="geometry" />
        </mxCell>
        <mxCell id="eAkv9zsF8Zlez0--PabY-8" value="subnet pri 1" style="points=[[0,0],[0.25,0],[0.5,0],[0.75,0],[1,0],[1,0.25],[1,0.5],[1,0.75],[1,1],[0.75,1],[0.5,1],[0.25,1],[0,1],[0,0.75],[0,0.5],[0,0.25]];outlineConnect=0;gradientColor=none;html=1;whiteSpace=wrap;fontSize=12;fontStyle=0;container=1;pointerEvents=0;collapsible=0;recursiveResize=0;shape=mxgraph.aws4.group;grIcon=mxgraph.aws4.group_security_group;grStroke=0;strokeColor=#00A4A6;fillColor=#E6F6F7;verticalAlign=top;align=left;spacingLeft=30;fontColor=#147EBA;dashed=0;" vertex="1" parent="eAkv9zsF8Zlez0--PabY-11">
          <mxGeometry x="30" y="30" width="150" height="40" as="geometry" />
        </mxCell>
        <mxCell id="eAkv9zsF8Zlez0--PabY-9" value="subnet pri 2" style="points=[[0,0],[0.25,0],[0.5,0],[0.75,0],[1,0],[1,0.25],[1,0.5],[1,0.75],[1,1],[0.75,1],[0.5,1],[0.25,1],[0,1],[0,0.75],[0,0.5],[0,0.25]];outlineConnect=0;gradientColor=none;html=1;whiteSpace=wrap;fontSize=12;fontStyle=0;container=1;pointerEvents=0;collapsible=0;recursiveResize=0;shape=mxgraph.aws4.group;grIcon=mxgraph.aws4.group_security_group;grStroke=0;strokeColor=#00A4A6;fillColor=#E6F6F7;verticalAlign=top;align=left;spacingLeft=30;fontColor=#147EBA;dashed=0;" vertex="1" parent="eAkv9zsF8Zlez0--PabY-11">
          <mxGeometry x="30" y="90" width="150" height="40" as="geometry" />
        </mxCell>
        <mxCell id="eAkv9zsF8Zlez0--PabY-15" value="" style="edgeStyle=orthogonalEdgeStyle;rounded=0;orthogonalLoop=1;jettySize=auto;html=1;" edge="1" parent="1" source="eAkv9zsF8Zlez0--PabY-12" target="eAkv9zsF8Zlez0--PabY-14">
          <mxGeometry relative="1" as="geometry" />
        </mxCell>
        <mxCell id="eAkv9zsF8Zlez0--PabY-12" value="subnet pub" style="points=[[0,0],[0.25,0],[0.5,0],[0.75,0],[1,0],[1,0.25],[1,0.5],[1,0.75],[1,1],[0.75,1],[0.5,1],[0.25,1],[0,1],[0,0.75],[0,0.5],[0,0.25]];outlineConnect=0;gradientColor=none;html=1;whiteSpace=wrap;fontSize=12;fontStyle=0;container=1;pointerEvents=0;collapsible=0;recursiveResize=0;shape=mxgraph.aws4.group;grIcon=mxgraph.aws4.group_security_group;grStroke=0;strokeColor=#7AA116;fillColor=#F2F6E8;verticalAlign=top;align=left;spacingLeft=30;fontColor=#248814;dashed=0;" vertex="1" parent="1">
          <mxGeometry x="372.5" y="400" width="160" height="40" as="geometry" />
        </mxCell>
        <mxCell id="eAkv9zsF8Zlez0--PabY-19" style="edgeStyle=orthogonalEdgeStyle;rounded=0;orthogonalLoop=1;jettySize=auto;html=1;" edge="1" parent="1" source="eAkv9zsF8Zlez0--PabY-13" target="eAkv9zsF8Zlez0--PabY-12">
          <mxGeometry relative="1" as="geometry" />
        </mxCell>
        <mxCell id="eAkv9zsF8Zlez0--PabY-13" value="" style="outlineConnect=0;dashed=0;verticalLabelPosition=bottom;verticalAlign=top;align=center;html=1;shape=mxgraph.aws3.ec2;fillColor=#F58534;gradientColor=none;" vertex="1" parent="1">
          <mxGeometry x="252.5" y="373.5" width="76.5" height="93" as="geometry" />
        </mxCell>
        <mxCell id="eAkv9zsF8Zlez0--PabY-14" value="Routing Table : Pub" style="outlineConnect=0;dashed=0;verticalLabelPosition=top;verticalAlign=bottom;align=center;html=1;shape=mxgraph.aws3.route_table;fillColor=#F58536;gradientColor=none;labelPosition=center;" vertex="1" parent="1">
          <mxGeometry x="415" y="270" width="75" height="69" as="geometry" />
        </mxCell>
        <mxCell id="eAkv9zsF8Zlez0--PabY-16" value="Routing Table: Pri" style="outlineConnect=0;dashed=0;verticalLabelPosition=top;verticalAlign=bottom;align=center;html=1;shape=mxgraph.aws3.route_table;fillColor=#F58536;gradientColor=none;labelPosition=center;" vertex="1" parent="1">
          <mxGeometry x="602.5" y="270" width="75" height="69" as="geometry" />
        </mxCell>
        <mxCell id="eAkv9zsF8Zlez0--PabY-17" style="edgeStyle=orthogonalEdgeStyle;rounded=0;orthogonalLoop=1;jettySize=auto;html=1;" edge="1" parent="1" source="eAkv9zsF8Zlez0--PabY-8" target="eAkv9zsF8Zlez0--PabY-16">
          <mxGeometry relative="1" as="geometry" />
        </mxCell>
        <mxCell id="eAkv9zsF8Zlez0--PabY-18" style="edgeStyle=orthogonalEdgeStyle;rounded=0;orthogonalLoop=1;jettySize=auto;html=1;" edge="1" parent="1" source="eAkv9zsF8Zlez0--PabY-9" target="eAkv9zsF8Zlez0--PabY-16">
          <mxGeometry relative="1" as="geometry" />
        </mxCell>
        <mxCell id="eAkv9zsF8Zlez0--PabY-21" value="Internet Gateway" style="outlineConnect=0;dashed=0;verticalLabelPosition=bottom;verticalAlign=top;align=center;html=1;shape=mxgraph.aws3.internet_gateway;fillColor=#F58534;gradientColor=none;" vertex="1" parent="1">
          <mxGeometry x="245" y="200" width="69" height="72" as="geometry" />
        </mxCell>
        <mxCell id="eAkv9zsF8Zlez0--PabY-22" style="edgeStyle=orthogonalEdgeStyle;rounded=0;orthogonalLoop=1;jettySize=auto;html=1;entryX=1;entryY=0.5;entryDx=0;entryDy=0;entryPerimeter=0;" edge="1" parent="1" source="eAkv9zsF8Zlez0--PabY-14" target="eAkv9zsF8Zlez0--PabY-21">
          <mxGeometry relative="1" as="geometry" />
        </mxCell>
        <mxCell id="eAkv9zsF8Zlez0--PabY-33" style="edgeStyle=orthogonalEdgeStyle;rounded=0;orthogonalLoop=1;jettySize=auto;html=1;endArrow=none;endFill=0;" edge="1" parent="1" source="eAkv9zsF8Zlez0--PabY-23" target="eAkv9zsF8Zlez0--PabY-2">
          <mxGeometry relative="1" as="geometry" />
        </mxCell>
        <mxCell id="eAkv9zsF8Zlez0--PabY-23" value="Security group: RDS-EC2" style="fillColor=none;strokeColor=#DD3522;verticalAlign=top;fontStyle=0;fontColor=#DD3522;whiteSpace=wrap;html=1;" vertex="1" parent="1">
          <mxGeometry x="712.5" y="570" width="190" height="80" as="geometry" />
        </mxCell>
        <mxCell id="eAkv9zsF8Zlez0--PabY-32" style="edgeStyle=orthogonalEdgeStyle;rounded=0;orthogonalLoop=1;jettySize=auto;html=1;endArrow=none;endFill=0;" edge="1" parent="1" source="eAkv9zsF8Zlez0--PabY-24" target="eAkv9zsF8Zlez0--PabY-13">
          <mxGeometry relative="1" as="geometry">
            <Array as="points">
              <mxPoint x="447.5" y="520" />
              <mxPoint x="290.5" y="520" />
            </Array>
          </mxGeometry>
        </mxCell>
        <mxCell id="eAkv9zsF8Zlez0--PabY-24" value="Security group: EC2-RDS" style="fillColor=none;strokeColor=#DD3522;verticalAlign=top;fontStyle=0;fontColor=#DD3522;whiteSpace=wrap;html=1;" vertex="1" parent="1">
          <mxGeometry x="352.5" y="570" width="190" height="80" as="geometry" />
        </mxCell>
        <mxCell id="eAkv9zsF8Zlez0--PabY-31" style="edgeStyle=orthogonalEdgeStyle;rounded=0;orthogonalLoop=1;jettySize=auto;html=1;endArrow=none;endFill=0;" edge="1" parent="1" source="eAkv9zsF8Zlez0--PabY-25" target="eAkv9zsF8Zlez0--PabY-13">
          <mxGeometry relative="1" as="geometry" />
        </mxCell>
        <mxCell id="eAkv9zsF8Zlez0--PabY-25" value="Security group: Default" style="fillColor=none;strokeColor=#DD3522;verticalAlign=top;fontStyle=0;fontColor=#DD3522;whiteSpace=wrap;html=1;" vertex="1" parent="1">
          <mxGeometry x="139" y="570" width="190" height="80" as="geometry" />
        </mxCell>
        <mxCell id="eAkv9zsF8Zlez0--PabY-26" value="&lt;div&gt;IN:&amp;nbsp; EC2-RDS/TCP3306&lt;/div&gt;" style="rounded=1;whiteSpace=wrap;html=1;" vertex="1" parent="1">
          <mxGeometry x="732.5" y="600" width="160" height="20" as="geometry" />
        </mxCell>
        <mxCell id="eAkv9zsF8Zlez0--PabY-28" value="&lt;div&gt;OUT: RDS-EC2/TCP3306&lt;/div&gt;" style="rounded=1;whiteSpace=wrap;html=1;" vertex="1" parent="1">
          <mxGeometry x="367.5" y="620" width="160" height="20" as="geometry" />
        </mxCell>
        <mxCell id="eAkv9zsF8Zlez0--PabY-29" value="&lt;div&gt;IN: 0.0.0.0/32 / TCP22&lt;/div&gt;" style="rounded=1;whiteSpace=wrap;html=1;" vertex="1" parent="1">
          <mxGeometry x="154" y="600" width="160" height="20" as="geometry" />
        </mxCell>
        <mxCell id="eAkv9zsF8Zlez0--PabY-30" value="&lt;div&gt;IN: 0.0.0.0/32 / TCP22&lt;/div&gt;" style="rounded=1;whiteSpace=wrap;html=1;" vertex="1" parent="1">
          <mxGeometry x="154" y="620" width="160" height="20" as="geometry" />
        </mxCell>
      </root>
    </mxGraphModel>
  </diagram>
</mxfile>
